<svg xmlns="http://www.w3.org/2000/svg" viewBox="0 0 64 64">
  <defs>
    <linearGradient id="water" x1="8" y1="8" x2="56" y2="52" gradientUnits="userSpaceOnUse">
      <stop offset="0" stop-color="#0b5bc7"/>
      <stop offset="0.55" stop-color="#0ea5e9"/>
      <stop offset="1" stop-color="#22c55e"/>
    </linearGradient>
    <linearGradient id="car" x1="10" y1="25" x2="54" y2="44" gradientUnits="userSpaceOnUse">
      <stop offset="0" stop-color="#061b36"/>
      <stop offset="1" stop-color="#063f7a"/>
    </linearGradient>
  </defs>
  <rect width="64" height="64" rx="14" fill="#ffffff"/>
  <path d="M9 35c4-15 18-25 34-23 6 .8 11 3.1 15 6.8-13-5.5-29-4.4-40 3.7-4.4 3.2-7.1 7.2-9 12.5Z" fill="url(#water)"/>
  <path d="M8 43c10-4 19-3.8 28 .4 7 3.2 13 3.7 21 1.1-8.3 7-19 7.6-29.8 2.2C20.1 43.2 14.2 42.6 8 43Z" fill="url(#water)"/>
  <path d="M15 36.5c3.5-6.6 10.4-10.4 19.6-10.4 7.6 0 14.7 2.9 19.4 8.1l2.8 3.1c.8.9.3 2.4-.9 2.5l-6.2.5c-.9.1-1.8-.4-2.3-1.2l-1.1-1.9H23.8l-1.5 2.2c-.5.7-1.3 1.1-2.1 1.1h-4.1c-1.4 0-2.2-1.6-1.5-2.8l.4-1.2Z" fill="url(#car)"/>
  <path d="M25.5 30.1c2.4-1.4 5.3-2.1 8.7-2.1 3.1 0 6.2.7 9.1 2.1l3.7 4.4H36.3l-2.7-5.1H27l-4.2 5.1h-4.4c1.7-1.8 4.1-3.4 7.1-4.4Z" fill="#ffffff"/>
  <circle cx="24" cy="39.5" r="4.6" fill="#ffffff"/>
  <circle cx="47" cy="39.5" r="4.6" fill="#ffffff"/>
  <circle cx="24" cy="39.5" r="2.5" fill="#061b36"/>
  <circle cx="47" cy="39.5" r="2.5" fill="#061b36"/>
  <circle cx="43" cy="18" r="2.8" fill="#0ea5e9"/>
  <circle cx="50" cy="20" r="1.8" fill="#0ea5e9"/>
  <path d="M52.8 26.5c5.2-1.6 8.2.9 7.7 5.7-4.1-1.5-6.8-.2-9.2 3 0-3.3.5-6.2 1.5-8.7Z" fill="#0ea5e9"/>
</svg>
